<?xml version="1.0" standalone="no"?>
<!DOCTYPE svg PUBLIC "-//W3C//DTD SVG 20010904//EN"
 "http://www.w3.org/TR/2001/REC-SVG-20010904/DTD/svg10.dtd">
<svg version="1.0" xmlns="http://www.w3.org/2000/svg"
 width="300.000000pt" height="300.000000pt" viewBox="0 0 300.000000 300.000000"
 preserveAspectRatio="xMidYMid meet">
<metadata>
Created by potrace 1.11, written by Peter Selinger 2001-2013
</metadata>
<g transform="translate(0.000000,300.000000) scale(0.100000,-0.100000)"
fill="#000000" stroke="none">
<path d="M1835 2631 c5 -15 2 -21 -10 -21 -9 0 -13 5 -10 10 8 13 8 13 -67 -4
-35 -8 -74 -17 -88 -20 -118 -23 -143 -27 -147 -23 -2 3 14 8 36 12 45 7 57
24 14 19 -16 -2 -55 -4 -88 -5 l-60 -1 35 -18 c19 -11 30 -19 23 -20 -6 0 -20
-3 -30 -6 -13 -4 -15 -3 -4 4 8 6 9 12 3 16 -6 3 -13 3 -16 -2 -2 -4 -32 -8
-65 -7 -34 0 -61 -3 -61 -6 0 -4 -15 -10 -33 -13 -41 -8 -68 -36 -91 -94 l-16
-43 47 27 c41 23 45 24 26 6 -12 -12 -26 -22 -30 -22 -11 0 -45 -62 -37 -69 8
-8 34 29 34 48 0 13 2 13 9 3 6 -10 13 -11 27 -3 11 5 33 17 50 25 29 14 30
14 30 -7 -1 -12 -7 -28 -13 -35 -15 -16 -17 -62 -3 -62 6 0 10 4 10 9 0 5 27
38 60 74 l60 64 196 -1 c108 -1 198 2 201 7 2 4 10 7 16 7 7 0 6 -4 -3 -10
-12 -8 -12 -10 5 -10 12 -1 35 -20 55 -46 19 -26 40 -52 47 -58 10 -12 17 -46
14 -71 -1 -5 -12 13 -26 40 l-25 50 2 -45 c1 -25 -2 -51 -6 -58 -8 -14 17 -27
34 -17 5 3 10 3 10 0 0 -11 -42 -90 -58 -107 -14 -16 -13 -18 3 -18 11 0 15
-5 11 -16 -3 -9 -6 -17 -6 -20 0 -2 -8 -1 -17 2 -14 5 -15 4 -4 -4 10 -7 10
-14 2 -30 -6 -11 -11 -31 -11 -44 1 -22 2 -22 14 -5 10 13 21 16 40 11 14 -3
26 -10 26 -14 0 -5 -8 -6 -18 -3 -10 2 -54 -12 -98 -33 -78 -36 -81 -37 -202
-37 -67 0 -120 -2 -117 -5 2 -3 -3 -10 -12 -17 -13 -9 -13 -14 -3 -20 9 -5 11
-4 6 3 -4 7 -4 12 1 13 4 0 19 2 33 4 14 1 32 -4 41 -12 19 -16 90 -15 101 1
5 7 8 7 8 -1 0 -7 5 -13 11 -13 5 0 7 5 4 10 -3 6 3 10 14 10 12 0 21 4 21 8
0 4 12 9 28 10 24 1 23 0 -13 -18 -22 -11 -58 -32 -80 -45 -22 -14 -48 -23
-58 -21 -10 2 -22 -4 -27 -15 -11 -20 -40 -26 -40 -8 0 6 6 9 13 6 8 -3 14 0
14 7 0 7 -10 12 -21 11 -13 -1 -20 -8 -18 -17 1 -11 -6 -14 -30 -13 -40 3 -60
-4 -52 -17 4 -6 10 -5 16 3 8 11 11 11 15 1 3 -9 9 -10 17 -3 12 10 41 10 52
-1 3 -4 -2 -5 -12 -4 -12 2 -32 -19 -66 -71 -26 -40 -48 -77 -48 -82 0 -8 58
-54 139 -110 l33 -24 -7 31 c-5 26 -1 39 29 78 42 55 46 52 11 -10 -14 -25
-25 -56 -25 -69 0 -23 36 -69 77 -98 11 -8 41 -33 67 -56 32 -29 59 -43 89
-48 23 -4 49 -11 57 -15 25 -14 -12 -23 -44 -10 -39 14 -41 14 -81 -21 -24
-21 -34 -37 -30 -48 4 -10 -3 -7 -18 8 l-25 23 -132 -23 c-73 -13 -139 -29
-146 -37 -10 -9 -14 -10 -14 -1 0 9 -3 9 -14 0 -9 -8 -21 -9 -37 -2 -13 5 -37
13 -54 17 l-30 7 39 10 c29 7 40 6 46 -3 6 -10 21 -5 62 21 232 148 231 147
214 177 l-12 23 -57 -45 c-30 -25 -59 -46 -62 -46 -4 0 21 23 54 51 70 58 70
62 -12 104 -29 15 -59 33 -68 41 -26 23 -43 16 -88 -36 -24 -28 -71 -79 -105
-114 -59 -61 -62 -63 -111 -62 -33 1 -54 -4 -62 -14 -9 -12 -14 -13 -24 -2
-11 10 -10 12 4 12 9 0 17 4 17 8 0 5 45 41 100 82 55 40 98 75 96 77 -2 3
-50 -12 -105 -32 l-101 -37 -16 -59 c-9 -32 -22 -59 -28 -59 -6 0 -3 -5 7 -11
9 -5 21 -8 26 -4 20 12 21 -15 2 -34 -13 -13 -30 -19 -48 -17 -17 3 -37 -3
-52 -15 -21 -17 -22 -20 -6 -35 9 -9 17 -15 18 -13 2 2 8 16 14 30 9 20 18 27
37 25 21 -1 25 -5 20 -21 -6 -19 -6 -19 13 -3 10 10 29 19 41 21 12 2 24 6 28
10 4 3 -4 4 -16 2 -21 -4 -21 -1 11 32 19 20 29 33 22 29 -15 -8 -27 10 -12
20 7 4 9 3 5 -4 -7 -11 12 -11 32 1 7 5 12 4 12 -2 0 -6 -4 -11 -8 -11 -5 0
-15 -16 -22 -36 -8 -20 -27 -47 -42 -59 -35 -29 -35 -39 -3 -33 13 3 22 2 20
-3 -3 -4 -37 -13 -76 -20 -55 -10 -75 -18 -90 -38 -46 -58 -101 -111 -110
-105 -6 3 -9 -1 -7 -9 5 -23 -103 -179 -116 -167 -3 3 15 31 40 63 25 31 43
57 40 57 -4 0 -46 -24 -94 -54 -86 -54 -87 -55 -89 -98 -1 -23 -5 -59 -9 -78
l-6 -35 23 30 c13 17 27 35 31 40 5 6 17 22 29 37 22 31 42 37 32 12 -6 -17
51 11 119 58 14 10 30 18 35 18 4 0 19 9 33 20 34 26 42 25 34 -6 -4 -15 -3
-25 2 -23 19 8 123 84 124 91 0 3 -24 -3 -52 -14 -29 -11 -49 -16 -45 -11 8 8
24 17 161 96 36 21 68 43 71 48 4 5 -3 29 -14 53 l-19 45 31 10 c30 10 31 10
12 -5 -24 -18 -22 -32 15 -109 16 -33 39 -92 50 -131 20 -64 27 -75 75 -112
30 -24 60 -40 69 -37 9 3 23 7 31 10 12 4 12 10 -6 39 -11 19 -22 54 -25 78
-3 23 -7 52 -8 64 -2 11 -6 25 -9 31 -3 5 10 17 28 27 19 11 32 23 29 27 -4 7
21 7 46 -1 3 -1 -8 -8 -25 -16 -31 -15 5 -14 270 1 28 2 115 6 195 10 138 7
180 10 208 13 6 1 13 12 13 25 1 19 2 20 6 2 4 -15 12 -6 34 39 16 32 29 62
29 66 0 14 -109 69 -113 57 -2 -8 -14 -5 -33 8 -51 34 1 31 69 -5 l60 -31 -38
53 c-22 29 -48 67 -59 83 -50 72 -71 95 -85 95 -9 1 -45 37 -81 81 -36 45 -76
89 -88 100 -13 10 -21 23 -17 29 10 16 22 12 28 -12 6 -21 6 -21 39 6 18 14
43 32 56 38 12 6 21 17 18 24 -3 9 1 11 11 7 11 -4 14 -2 9 5 -6 11 6 17 27
13 4 -1 33 16 65 37 78 53 87 57 78 44 -11 -18 10 -14 24 4 35 41 48 38 108
-26 54 -58 88 -112 59 -93 -20 13 -68 11 -57 -2 5 -6 29 -10 54 -10 36 1 52
-5 85 -31 44 -34 40 -42 -21 -39 -21 1 -38 -1 -38 -5 0 -4 15 -7 33 -6 17 2
42 -1 55 -6 15 -5 21 -4 17 2 -3 6 -2 10 4 10 5 0 13 -4 16 -10 3 -5 15 -15
26 -21 19 -10 20 -9 9 11 -11 20 -10 21 9 10 12 -6 26 -8 31 -5 6 4 10 3 9 -2
-1 -4 -1 -18 0 -30 1 -20 3 -21 26 -11 14 6 25 19 25 30 0 10 6 18 14 18 11 0
56 83 56 103 0 3 8 22 17 43 78 182 91 219 77 230 -13 10 -13 12 0 17 9 4 22
23 31 43 19 46 19 48 -1 40 -13 -5 -14 -4 -5 7 9 12 2 18 -39 35 l-51 21 -6
-29 c-3 -16 -9 -27 -13 -25 -5 3 -6 14 -3 25 6 24 -12 27 -21 4 -12 -30 -6
-72 14 -96 10 -14 17 -28 13 -31 -3 -3 -22 -46 -42 -95 -20 -49 -49 -105 -64
-123 -15 -19 -34 -43 -42 -54 -16 -22 -15 -23 -19 47 -1 17 -111 138 -125 138
-3 0 -7 12 -8 26 0 15 -5 29 -10 33 -4 3 -13 15 -19 26 -7 13 -29 24 -58 30
l-48 10 41 11 c36 10 40 9 29 -3 -10 -12 -6 -14 24 -8 30 6 43 2 71 -19 41
-32 45 -32 69 -3 50 56 71 89 71 113 0 15 6 38 13 53 29 56 19 87 -48 152
l-63 60 -55 -6 c-50 -5 -59 -10 -98 -53 -39 -43 -43 -51 -40 -95 4 -64 -13
-54 -32 19 -8 32 -18 64 -22 70 -4 6 -33 17 -65 24 -32 8 -61 18 -64 22 -3 5
-23 29 -45 55 -89 106 -101 116 -138 119 -40 4 -44 -3 -18 -32 39 -41 164
-284 147 -284 -2 0 -10 6 -17 13 -7 8 -31 19 -53 25 l-40 11 38 -5 c20 -3 37
-2 37 2 0 4 -16 36 -35 71 -19 35 -34 64 -32 66 4 6 -88 157 -96 157 -5 0 -6
-4 -2 -9 9 -16 13 -71 4 -65 -5 3 -9 16 -9 28 0 16 -13 32 -41 50 -38 26 -40
26 -34 7z m308 -346 c-3 -9 -8 -14 -10 -11 -3 3 -2 9 2 15 9 16 15 13 8 -4z
m-127 -28 c3 -3 -6 -4 -22 -1 -37 7 -47 16 -12 12 15 -2 30 -7 34 -11z m92 -1
c2 -2 -16 -4 -40 -4 -27 -1 -37 2 -29 8 12 7 60 4 69 -4z m228 -148 c-8 -13
-16 -27 -16 -33 -1 -12 -40 -59 -58 -69 -6 -4 -2 9 10 29 13 20 28 44 33 53
21 36 26 42 36 42 5 0 3 -10 -5 -22z m-295 -60 c15 -11 4 -9 -30 7 -30 13 -57
29 -61 35 -4 6 -11 10 -16 9 -18 -3 -25 1 -19 11 6 9 70 -22 126 -62z m117
-58 c-7 -10 -14 -18 -15 -16 -6 6 9 36 18 36 5 0 4 -9 -3 -20z m-418 -186 c0
-8 -19 -13 -24 -6 -3 5 1 9 9 9 8 0 15 -2 15 -3z m697 -46 c-3 -8 -6 -5 -6 6
-1 11 2 17 5 13 3 -3 4 -12 1 -19z m27 -4 c3 -8 2 -12 -4 -9 -6 3 -10 10 -10
16 0 14 7 11 14 -7z m-334 -468 c36 -1 77 -36 65 -56 -8 -13 -35 -13 -35 0 0
10 -44 31 -115 56 l-40 14 45 -6 c25 -4 61 -7 80 -8z"/>
<path d="M1095 2515 l-30 -14 40 3 c21 2 41 8 43 15 5 15 -16 13 -53 -4z"/>
<path d="M950 2400 l-45 -5 52 -11 c28 -6 57 -8 64 -4 21 14 -23 26 -71 20z"/>
<path d="M1720 2370 c0 -12 8 -12 35 0 18 8 17 9 -7 9 -16 1 -28 -3 -28 -9z"/>
<path d="M1060 2345 c27 -14 36 -13 25 4 -3 6 -16 11 -28 11 -21 -1 -21 -1 3
-15z"/>
<path d="M510 2335 c0 -17 28 -20 50 -4 12 8 9 10 -12 6 -15 -2 -25 0 -22 4 3
5 0 9 -5 9 -6 0 -11 -7 -11 -15z"/>
<path d="M2832 2267 c-5 -23 -5 -46 -1 -51 12 -13 17 -6 27 41 7 32 7 43 -4
47 -9 3 -16 -8 -22 -37z"/>
<path d="M2790 2240 c0 -16 5 -30 10 -30 6 0 10 6 10 14 0 8 3 21 6 30 4 11 1
16 -10 16 -11 0 -16 -9 -16 -30z"/>
<path d="M2866 2243 c-4 -16 -9 -36 -12 -45 -4 -12 0 -18 10 -18 9 0 16 6 16
14 0 7 3 28 6 45 8 39 -11 42 -20 4z"/>
<path d="M2897 2198 c-7 -25 0 -41 14 -33 12 8 12 55 0 55 -5 0 -11 -10 -14
-22z"/>
<path d="M1784 2134 c1 -24 23 -29 38 -9 5 6 8 4 8 -5 0 -13 1 -13 10 0 6 10
10 11 10 3 0 -7 5 -13 10 -13 26 0 6 20 -34 33 -44 15 -44 15 -42 -9z"/>
<path d="M1546 2025 c-5 -14 21 -35 43 -35 18 0 12 14 -13 32 -21 15 -25 15
-30 3z"/>
<path d="M1395 2010 c3 -5 12 -10 20 -10 8 0 17 5 20 10 4 6 -5 10 -20 10 -15
0 -24 -4 -20 -10z"/>
<path d="M1746 1985 c-16 -20 -26 -38 -24 -40 3 -3 114 42 127 52 8 6 -4 11
-40 18 -32 6 -38 3 -63 -30z"/>
<path d="M1065 1841 c-11 -5 -23 -7 -27 -4 -5 2 -8 -1 -8 -8 0 -7 -3 -9 -6 -6
-10 9 -46 -12 -39 -24 4 -5 17 -9 31 -9 14 0 22 4 19 10 -3 6 -1 10 4 10 6 0
11 -4 11 -10 0 -5 16 -10 35 -10 28 0 33 3 29 18 -3 9 2 6 10 -8 8 -14 15 -20
16 -13 0 6 9 9 23 6 16 -4 12 3 -18 25 -43 33 -49 35 -80 23z m5 -21 c0 -5 -2
-10 -4 -10 -3 0 -8 5 -11 10 -3 6 -1 10 4 10 6 0 11 -4 11 -10z"/>
<path d="M1360 1846 c0 -2 8 -10 18 -17 15 -13 16 -12 3 4 -13 16 -21 21 -21
13z"/>
<path d="M1495 1840 c-3 -5 -1 -10 4 -10 6 0 11 5 11 10 0 6 -2 10 -4 10 -3 0
-8 -4 -11 -10z"/>
<path d="M1435 1829 c-3 -4 2 -6 10 -5 21 3 28 13 10 13 -9 0 -18 -4 -20 -8z"/>
<path d="M933 1807 c-17 -7 -35 -16 -40 -21 -5 -5 -3 -6 5 -2 7 5 28 8 46 8
21 0 33 5 33 14 0 16 -2 16 -44 1z"/>
<path d="M1417 1809 c7 -7 15 -10 18 -7 3 3 -2 9 -12 12 -14 6 -15 5 -6 -5z"/>
<path d="M2076 1753 c-6 -14 -5 -15 5 -6 7 7 10 15 7 18 -3 3 -9 -2 -12 -12z"/>
<path d="M2176 1758 c3 -5 10 -6 15 -3 13 9 11 12 -6 12 -8 0 -12 -4 -9 -9z"/>
<path d="M2118 1743 c7 -3 16 -2 19 1 4 3 -2 6 -13 5 -11 0 -14 -3 -6 -6z"/>
<path d="M150 1671 c0 -32 -1 -31 78 -46 l27 -5 -35 30 c-60 52 -70 55 -70 21z"/>
<path d="M1014 1678 c3 -10 2 -17 -2 -15 -4 1 -20 -8 -36 -20 -26 -21 -27 -23
-7 -23 11 0 21 5 21 11 0 5 5 7 10 4 6 -4 16 -2 23 3 7 5 20 8 30 7 15 -3 16
-1 6 11 -6 8 -14 12 -17 9 -3 -2 -11 3 -19 13 -14 16 -14 16 -9 0z"/>
<path d="M1080 1686 c0 -2 9 -6 20 -9 11 -3 20 -1 20 4 0 5 -9 9 -20 9 -11 0
-20 -2 -20 -4z"/>
<path d="M1287 1673 c-14 -14 -6 -20 19 -15 19 3 22 7 12 13 -16 11 -23 11
-31 2z"/>
<path d="M1035 1350 c3 -5 8 -10 11 -10 2 0 4 5 4 10 0 6 -5 10 -11 10 -5 0
-7 -4 -4 -10z"/>
<path d="M661 1144 c-12 -14 -11 -15 8 -12 12 1 22 7 22 13 1 16 -15 15 -30
-1z"/>
<path d="M413 1114 c-59 -27 -67 -37 -25 -30 15 2 34 5 43 5 9 1 24 12 33 26
20 31 15 30 -51 -1z"/>
<path d="M578 1093 c-32 -5 -35 -15 -12 -34 14 -11 18 -10 30 6 12 16 19 38
12 34 -2 -1 -15 -4 -30 -6z"/>
<path d="M840 1068 c-52 -20 -120 -59 -77 -45 9 4 17 2 17 -3 0 -6 -4 -10 -10
-10 -5 0 -10 -4 -10 -10 0 -15 26 -12 40 5 7 9 15 13 18 10 3 -3 10 0 17 5 8
7 12 5 12 -5 0 -8 -4 -12 -9 -9 -4 3 -8 0 -8 -5 0 -14 13 -14 28 1 9 9 9 15 0
26 -13 15 -11 17 39 49 27 18 4 14 -57 -9z"/>
<path d="M630 1020 c0 -5 5 -10 10 -10 6 0 10 5 10 10 0 6 -4 10 -10 10 -5 0
-10 -4 -10 -10z"/>
<path d="M720 1005 c-7 -8 -16 -12 -21 -9 -5 3 -9 1 -9 -4 0 -5 -32 -14 -71
-21 -38 -7 -68 -15 -65 -18 2 -3 28 -8 57 -12 51 -6 53 -5 90 32 25 26 39 34
42 25 4 -9 6 -9 6 -1 1 19 -16 24 -29 8z"/>
<path d="M660 999 c0 -5 5 -7 10 -4 6 3 10 8 10 11 0 2 -4 4 -10 4 -5 0 -10
-5 -10 -11z"/>
<path d="M56 911 c-4 -5 3 -7 14 -4 23 6 26 13 6 13 -8 0 -17 -4 -20 -9z"/>
<path d="M600 896 c0 -8 -3 -21 -6 -30 -4 -11 1 -15 24 -14 28 1 29 3 20 24
-12 27 -38 40 -38 20z"/>
<path d="M437 886 c-16 -13 -16 -15 -2 -30 24 -23 32 -20 37 14 5 33 -6 38
-35 16z"/>
<path d="M845 849 c-44 -27 -86 -48 -92 -49 -7 0 -13 -5 -13 -12 0 -6 -8 -21
-19 -32 -10 -12 -27 -34 -37 -50 -17 -26 -11 -24 51 22 39 28 88 67 110 87 22
20 51 46 64 56 45 36 16 26 -64 -22z"/>
<path d="M533 855 c0 -8 4 -12 9 -9 4 3 8 9 8 15 0 5 -4 9 -8 9 -5 0 -9 -7 -9
-15z"/>
<path d="M545 800 l-50 -20 4 -47 c2 -35 -1 -50 -13 -59 -18 -13 -28 -47 -30
-104 -1 -34 0 -35 38 -33 21 1 42 5 46 10 9 10 71 195 67 200 -2 1 -21 -9 -42
-24 l-39 -27 39 50 c59 74 59 74 44 73 -8 0 -37 -9 -64 -19z"/>
<path d="M423 719 c-29 -69 -29 -74 3 -43 19 20 24 34 22 62 l-3 36 -22 -55z"/>
<path d="M589 640 c-31 -102 -20 -110 29 -20 23 43 42 82 42 85 0 3 -11 5 -25
5 -22 0 -27 -8 -46 -70z"/>
<path d="M42 673 c-6 -3 -10 -9 -7 -14 4 -5 -1 -6 -9 -3 -20 8 -20 -3 -1 -22
12 -13 15 -12 25 6 13 25 10 39 -8 33z"/>
<path d="M288 650 c-29 -22 -45 -62 -22 -53 8 3 14 8 14 12 0 4 9 17 21 30 28
29 19 37 -13 11z"/>
<path d="M410 590 c-5 -22 -4 -120 1 -120 3 0 11 11 17 24 8 18 7 33 -3 62 -8
22 -15 37 -15 34z"/>
<path d="M206 516 c-29 -13 -29 -13 -5 -17 36 -7 59 0 52 17 -6 16 -9 16 -47
0z"/>
<path d="M516 491 c-3 -4 -19 -11 -36 -14 -27 -6 -30 -10 -30 -44 0 -28 6 -42
21 -51 12 -7 22 -12 24 -10 6 6 45 109 45 118 0 12 -17 13 -24 1z"/>
<path d="M339 473 c-12 -15 -12 -16 4 -10 10 4 23 7 28 7 5 0 9 5 9 10 0 16
-26 12 -41 -7z"/>
</g>
</svg>
